<?xml version="1.0" encoding="UTF-8"?>
<svg id="Layer_1" data-name="Layer 1" xmlns="http://www.w3.org/2000/svg" version="1.1" viewBox="0 0 1621.4 1080">
  <defs>
    <style>
      .cls-1 {
        fill: #666;
        stroke-width: 0px;
      }
    </style>
  </defs>
  <path class="cls-1" d="M465.4,331.8h113.8v416h-113.8v-416h0Z"/>
  <path class="cls-1" d="M919.2,427.9h115.6l65.8,210.3h4.3l65.8-210.3h115.6l-111.9,319.8h-143.3l-111.9-319.8h0Z"/>
  <path class="cls-1" d="M823.9,635.2c-12.9,14.2-31.5,23.2-52.2,23.2s-54.1-17.7-64.9-42.8h228.5c1.5-9,2.3-18.2,2.3-27.7,0-91.7-74.3-166.1-166.1-166.1s-166.1,74.3-166.1,166.1,74.3,166.1,166.1,166.1,138.8-50.1,159.2-118.7h-106.9ZM771.7,517.3c25.7,0,48.1,13.7,60.4,34.2h-120.9c12.3-20.5,34.8-34.2,60.4-34.2h0Z"/>
  <path class="cls-1" d="M1440,517.3c-38.9,0-70.5,31.6-70.5,70.5s31.6,70.5,70.5,70.5,70.5-31.6,70.5-70.5-31.6-70.5-70.5-70.5ZM1613.6,427.9v319.8h-113.8v-30.6c-24.3,19.2-54.1,30.6-86.4,30.6-81.1,0-146.9-71.6-146.9-159.9s65.8-159.9,146.9-159.9,62.1,11.4,86.4,30.6v-30.6h113.8Z"/>
  <path class="cls-1" d="M325,565.9c-11.6,46.3-53.4,80.5-103.2,80.5s-106.4-47.6-106.4-106.4,47.6-106.4,106.4-106.4,91.7,34.3,103.2,80.7h109.1c-12.7-106-102.9-188.1-212.3-188.1S7.9,421.9,7.9,540s95.8,213.9,213.9,213.9,199.5-82.1,212.3-188h-109.1,0Z"/>
</svg>