<?xml version="1.0" encoding="UTF-8"?>
<svg id="Layer_1" data-name="Layer 1" xmlns="http://www.w3.org/2000/svg" version="1.1" viewBox="0 0 300 68">
  <defs>
    <style>
      .cls-1 {
        fill: #231f20;
        stroke-width: 0px;
      }
    </style>
  </defs>
  <path class="cls-1" d="M99.75,3.7h16.56v60.52h-16.56V3.7h0Z"/>
  <path class="cls-1" d="M165.79,17.69h16.82l9.58,30.6h.63l9.58-30.6h16.82l-16.29,46.53h-20.85l-16.29-46.53h0Z"/>
  <path class="cls-1" d="M151.92,47.85c-1.88,2.07-4.58,3.37-7.59,3.37-4.23,0-7.87-2.57-9.44-6.23h33.24c.22-1.31.34-2.66.34-4.03,0-13.35-10.82-24.16-24.16-24.16s-24.16,10.82-24.16,24.16,10.82,24.16,24.16,24.16c10.95,0,20.19-7.29,23.16-17.27h-15.56ZM144.33,30.7c3.73,0,7,1.99,8.79,4.98h-17.59c1.79-2.98,5.06-4.98,8.79-4.98h0Z"/>
  <path class="cls-1" d="M241.56,30.7c-5.66,0-10.26,4.59-10.26,10.26s4.59,10.26,10.26,10.26,10.26-4.59,10.26-10.26-4.59-10.26-10.26-10.26ZM266.82,17.69v46.53h-16.56v-4.45c-3.53,2.8-7.87,4.45-12.57,4.45-11.81,0-21.38-10.42-21.38-23.27s9.57-23.27,21.38-23.27c4.7,0,9.04,1.65,12.57,4.45v-4.45h16.56Z"/>
  <path class="cls-1" d="M79.32,37.76c-1.68,6.73-7.77,11.72-15.02,11.72-8.55,0-15.48-6.93-15.48-15.48s6.93-15.48,15.48-15.48c7.26,0,13.35,5,15.02,11.74h15.87c-1.85-15.42-14.98-27.38-30.9-27.38-17.19,0-31.12,13.93-31.12,31.12s13.93,31.12,31.12,31.12c15.91,0,29.04-11.95,30.89-27.36h-15.87,0Z"/>
</svg>